<svg xmlns="http://www.w3.org/2000/svg" viewBox="0 0 31 31">
  <path id="Path_12" data-name="Path 12" d="M27.435,22.6,21.591,4.565a5.877,5.877,0,0,0-11.182,0L4.565,22.6a4.461,4.461,0,0,0,.408,8.9H27.027a4.461,4.461,0,0,0,.408-8.9ZM16,3.5a2.87,2.87,0,0,1,2.733,1.98H13.267A2.87,2.87,0,0,1,16,3.5ZM12.294,8.48h7.413l.988,3.05h-9.39Zm-1.961,6.05H21.667l.985,3.04H9.348ZM8.376,20.57H23.624l.643,1.984H7.732ZM27.027,28.5H4.973a1.473,1.473,0,0,1,0-2.946H27.027a1.473,1.473,0,0,1,0,2.946Z" transform="translate(-0.5 -0.5)" fill="#fff"/>
</svg>
